<mxfile host="app.diagrams.net" modified="2023-12-17T05:14:42.400Z" agent="Mozilla/5.0 (Windows NT 10.0; Win64; x64) AppleWebKit/537.36 (KHTML, like Gecko) Chrome/118.0.5993.731 YaBrowser/23.11.1.731 Yowser/2.5 Safari/537.36" etag="mTDaPh24lvLl5rka-e08" version="22.1.11" type="github">
  <diagram name="Страница — 1" id="qDOADenVG09ehRUiS6Ex">
    <mxGraphModel dx="1239" dy="1862" grid="1" gridSize="10" guides="1" tooltips="1" connect="1" arrows="1" fold="1" page="1" pageScale="1" pageWidth="827" pageHeight="1169" math="0" shadow="0">
      <root>
        <mxCell id="0" />
        <mxCell id="1" parent="0" />
        <mxCell id="b5Nr3tDvJ9iHZjcrWxrC-1" value="Гость" style="shape=umlActor;verticalLabelPosition=bottom;verticalAlign=top;html=1;outlineConnect=0;" parent="1" vertex="1">
          <mxGeometry x="40" y="40" width="30" height="60" as="geometry" />
        </mxCell>
        <mxCell id="b5Nr3tDvJ9iHZjcrWxrC-4" value="Клиент" style="shape=umlActor;verticalLabelPosition=bottom;verticalAlign=top;html=1;outlineConnect=0;" parent="1" vertex="1">
          <mxGeometry x="40" y="140" width="30" height="60" as="geometry" />
        </mxCell>
        <mxCell id="b5Nr3tDvJ9iHZjcrWxrC-5" value="Продавец" style="shape=umlActor;verticalLabelPosition=bottom;verticalAlign=top;html=1;outlineConnect=0;" parent="1" vertex="1">
          <mxGeometry x="40" y="240" width="30" height="60" as="geometry" />
        </mxCell>
        <mxCell id="b5Nr3tDvJ9iHZjcrWxrC-12" value="Web-browser" style="rounded=0;whiteSpace=wrap;html=1;" parent="1" vertex="1">
          <mxGeometry x="130" y="50" width="120" height="30" as="geometry" />
        </mxCell>
        <mxCell id="b5Nr3tDvJ9iHZjcrWxrC-13" value="Приложение" style="rounded=0;whiteSpace=wrap;html=1;" parent="1" vertex="1">
          <mxGeometry x="130" y="100" width="120" height="30" as="geometry" />
        </mxCell>
        <mxCell id="b5Nr3tDvJ9iHZjcrWxrC-64" style="edgeStyle=orthogonalEdgeStyle;rounded=1;orthogonalLoop=1;jettySize=auto;html=1;exitX=0.5;exitY=0;exitDx=0;exitDy=0;entryX=0;entryY=0.5;entryDx=0;entryDy=0;entryPerimeter=0;endArrow=none;endFill=0;" parent="1" source="b5Nr3tDvJ9iHZjcrWxrC-14" target="5lclMnRtChPnPHLRJyrd-21" edge="1">
          <mxGeometry relative="1" as="geometry">
            <Array as="points">
              <mxPoint x="600" y="20" />
            </Array>
            <mxPoint x="530" y="110" as="targetPoint" />
          </mxGeometry>
        </mxCell>
        <mxCell id="5lclMnRtChPnPHLRJyrd-6" style="edgeStyle=orthogonalEdgeStyle;rounded=1;orthogonalLoop=1;jettySize=auto;html=1;exitX=0.5;exitY=1;exitDx=0;exitDy=0;entryX=0.5;entryY=0;entryDx=0;entryDy=0;endArrow=none;endFill=0;" parent="1" source="b5Nr3tDvJ9iHZjcrWxrC-14" target="5lclMnRtChPnPHLRJyrd-4" edge="1">
          <mxGeometry relative="1" as="geometry">
            <mxPoint x="600" y="130" as="targetPoint" />
          </mxGeometry>
        </mxCell>
        <mxCell id="5lclMnRtChPnPHLRJyrd-23" style="edgeStyle=orthogonalEdgeStyle;rounded=1;orthogonalLoop=1;jettySize=auto;html=1;exitX=0.75;exitY=1;exitDx=0;exitDy=0;entryX=0.5;entryY=0;entryDx=0;entryDy=0;endArrow=none;endFill=0;" parent="1" source="b5Nr3tDvJ9iHZjcrWxrC-14" target="b5Nr3tDvJ9iHZjcrWxrC-67" edge="1">
          <mxGeometry relative="1" as="geometry">
            <Array as="points">
              <mxPoint x="630" y="150" />
              <mxPoint x="160" y="150" />
            </Array>
          </mxGeometry>
        </mxCell>
        <mxCell id="b5Nr3tDvJ9iHZjcrWxrC-14" value="Web-service" style="rounded=0;whiteSpace=wrap;html=1;" parent="1" vertex="1">
          <mxGeometry x="540" y="75" width="120" height="30" as="geometry" />
        </mxCell>
        <mxCell id="b5Nr3tDvJ9iHZjcrWxrC-15" value="API" style="rounded=0;whiteSpace=wrap;html=1;" parent="1" vertex="1">
          <mxGeometry x="494" y="75" width="46" height="30" as="geometry" />
        </mxCell>
        <mxCell id="b5Nr3tDvJ9iHZjcrWxrC-16" value="" style="endArrow=classic;startArrow=classic;html=1;rounded=1;entryX=0;entryY=0.5;entryDx=0;entryDy=0;exitX=1;exitY=0.5;exitDx=0;exitDy=0;edgeStyle=orthogonalEdgeStyle;" parent="1" source="b5Nr3tDvJ9iHZjcrWxrC-12" target="b5Nr3tDvJ9iHZjcrWxrC-15" edge="1">
          <mxGeometry width="50" height="50" relative="1" as="geometry">
            <mxPoint x="270" y="40" as="sourcePoint" />
            <mxPoint x="320" y="-10" as="targetPoint" />
            <Array as="points">
              <mxPoint x="340" y="65" />
              <mxPoint x="340" y="90" />
            </Array>
          </mxGeometry>
        </mxCell>
        <mxCell id="b5Nr3tDvJ9iHZjcrWxrC-17" value="" style="endArrow=classic;startArrow=classic;html=1;rounded=1;exitX=1;exitY=0.5;exitDx=0;exitDy=0;entryX=0;entryY=0.5;entryDx=0;entryDy=0;edgeStyle=orthogonalEdgeStyle;" parent="1" source="b5Nr3tDvJ9iHZjcrWxrC-13" target="b5Nr3tDvJ9iHZjcrWxrC-15" edge="1">
          <mxGeometry width="50" height="50" relative="1" as="geometry">
            <mxPoint x="270" y="40" as="sourcePoint" />
            <mxPoint x="290" y="80" as="targetPoint" />
            <Array as="points">
              <mxPoint x="340" y="115" />
              <mxPoint x="340" y="90" />
            </Array>
          </mxGeometry>
        </mxCell>
        <mxCell id="b5Nr3tDvJ9iHZjcrWxrC-19" value="Запросы и ответы" style="edgeLabel;html=1;align=center;verticalAlign=middle;resizable=0;points=[];" parent="b5Nr3tDvJ9iHZjcrWxrC-17" vertex="1" connectable="0">
          <mxGeometry x="0.554" y="1" relative="1" as="geometry">
            <mxPoint x="-32" y="16" as="offset" />
          </mxGeometry>
        </mxCell>
        <mxCell id="b5Nr3tDvJ9iHZjcrWxrC-21" value="БД с данными по товарам" style="shape=cylinder3;whiteSpace=wrap;html=1;boundedLbl=1;backgroundOutline=1;size=15;" parent="1" vertex="1">
          <mxGeometry x="730" y="70" width="120" height="80" as="geometry" />
        </mxCell>
        <mxCell id="b5Nr3tDvJ9iHZjcrWxrC-22" value="БД пользователей и статистики по ним" style="shape=cylinder3;whiteSpace=wrap;html=1;boundedLbl=1;backgroundOutline=1;size=15;" parent="1" vertex="1">
          <mxGeometry x="730" y="160" width="120" height="80" as="geometry" />
        </mxCell>
        <mxCell id="b5Nr3tDvJ9iHZjcrWxrC-24" value="" style="endArrow=classic;html=1;rounded=1;exitX=0;exitY=0.5;exitDx=0;exitDy=0;exitPerimeter=0;entryX=1;entryY=0.5;entryDx=0;entryDy=0;edgeStyle=orthogonalEdgeStyle;" parent="1" source="b5Nr3tDvJ9iHZjcrWxrC-21" target="b5Nr3tDvJ9iHZjcrWxrC-14" edge="1">
          <mxGeometry width="50" height="50" relative="1" as="geometry">
            <mxPoint x="450" y="250" as="sourcePoint" />
            <mxPoint x="500" y="200" as="targetPoint" />
            <Array as="points">
              <mxPoint x="690" y="110" />
              <mxPoint x="690" y="90" />
            </Array>
          </mxGeometry>
        </mxCell>
        <mxCell id="b5Nr3tDvJ9iHZjcrWxrC-25" value="" style="endArrow=classic;html=1;rounded=1;exitX=0;exitY=0.5;exitDx=0;exitDy=0;exitPerimeter=0;entryX=1;entryY=0.5;entryDx=0;entryDy=0;edgeStyle=orthogonalEdgeStyle;" parent="1" source="b5Nr3tDvJ9iHZjcrWxrC-22" target="b5Nr3tDvJ9iHZjcrWxrC-14" edge="1">
          <mxGeometry width="50" height="50" relative="1" as="geometry">
            <mxPoint x="640" y="120" as="sourcePoint" />
            <mxPoint x="600" y="180" as="targetPoint" />
            <Array as="points">
              <mxPoint x="690" y="200" />
              <mxPoint x="690" y="90" />
            </Array>
          </mxGeometry>
        </mxCell>
        <mxCell id="b5Nr3tDvJ9iHZjcrWxrC-35" value="Платежная система" style="rounded=0;whiteSpace=wrap;html=1;" parent="1" vertex="1">
          <mxGeometry x="530" y="570" width="70" height="60" as="geometry" />
        </mxCell>
        <mxCell id="b5Nr3tDvJ9iHZjcrWxrC-45" value="API" style="rounded=0;whiteSpace=wrap;html=1;" parent="1" vertex="1">
          <mxGeometry x="300" y="570" width="40" height="60" as="geometry" />
        </mxCell>
        <mxCell id="b5Nr3tDvJ9iHZjcrWxrC-49" value="Хранилище данных стороннего интернет магазина" style="rounded=0;whiteSpace=wrap;html=1;" parent="1" vertex="1">
          <mxGeometry x="340" y="570" width="170" height="60" as="geometry" />
        </mxCell>
        <mxCell id="b5Nr3tDvJ9iHZjcrWxrC-59" style="edgeStyle=orthogonalEdgeStyle;rounded=1;orthogonalLoop=1;jettySize=auto;html=1;exitX=0.5;exitY=1;exitDx=0;exitDy=0;entryX=0.5;entryY=0;entryDx=0;entryDy=0;" parent="1" source="b5Nr3tDvJ9iHZjcrWxrC-57" edge="1">
          <mxGeometry relative="1" as="geometry">
            <mxPoint x="970" y="360" as="targetPoint" />
          </mxGeometry>
        </mxCell>
        <mxCell id="b5Nr3tDvJ9iHZjcrWxrC-57" value="Очередь на отправку сообщений/уведомлений" style="rounded=0;whiteSpace=wrap;html=1;" parent="1" vertex="1">
          <mxGeometry x="880" y="260" width="180" height="60" as="geometry" />
        </mxCell>
        <mxCell id="b5Nr3tDvJ9iHZjcrWxrC-70" style="edgeStyle=orthogonalEdgeStyle;rounded=1;orthogonalLoop=1;jettySize=auto;html=1;exitX=0.5;exitY=1;exitDx=0;exitDy=0;entryX=0.5;entryY=0;entryDx=0;entryDy=0;endArrow=none;endFill=0;" parent="1" source="b5Nr3tDvJ9iHZjcrWxrC-67" target="b5Nr3tDvJ9iHZjcrWxrC-69" edge="1">
          <mxGeometry relative="1" as="geometry">
            <Array as="points">
              <mxPoint x="160" y="265" />
            </Array>
          </mxGeometry>
        </mxCell>
        <mxCell id="b5Nr3tDvJ9iHZjcrWxrC-67" value="Мессенджеры" style="rounded=0;whiteSpace=wrap;html=1;" parent="1" vertex="1">
          <mxGeometry x="100" y="190" width="120" height="30" as="geometry" />
        </mxCell>
        <mxCell id="b5Nr3tDvJ9iHZjcrWxrC-69" value="Бот помощник" style="rounded=0;whiteSpace=wrap;html=1;" parent="1" vertex="1">
          <mxGeometry x="105" y="250" width="110" height="30" as="geometry" />
        </mxCell>
        <mxCell id="5lclMnRtChPnPHLRJyrd-3" style="edgeStyle=orthogonalEdgeStyle;rounded=1;orthogonalLoop=1;jettySize=auto;html=1;entryX=1;entryY=0.5;entryDx=0;entryDy=0;" parent="1" source="5lclMnRtChPnPHLRJyrd-2" target="b5Nr3tDvJ9iHZjcrWxrC-14" edge="1">
          <mxGeometry relative="1" as="geometry">
            <Array as="points">
              <mxPoint x="690" y="290" />
              <mxPoint x="690" y="90" />
            </Array>
          </mxGeometry>
        </mxCell>
        <mxCell id="5lclMnRtChPnPHLRJyrd-11" style="edgeStyle=orthogonalEdgeStyle;rounded=1;orthogonalLoop=1;jettySize=auto;html=1;exitX=1;exitY=0.5;exitDx=0;exitDy=0;exitPerimeter=0;entryX=0;entryY=0.5;entryDx=0;entryDy=0;" parent="1" source="5lclMnRtChPnPHLRJyrd-2" target="b5Nr3tDvJ9iHZjcrWxrC-57" edge="1">
          <mxGeometry relative="1" as="geometry" />
        </mxCell>
        <mxCell id="5lclMnRtChPnPHLRJyrd-2" value="БД с сообщениями для рассылки" style="shape=cylinder3;whiteSpace=wrap;html=1;boundedLbl=1;backgroundOutline=1;size=15;" parent="1" vertex="1">
          <mxGeometry x="735" y="250" width="110" height="80" as="geometry" />
        </mxCell>
        <mxCell id="5lclMnRtChPnPHLRJyrd-4" value="Authification" style="rounded=0;whiteSpace=wrap;html=1;" parent="1" vertex="1">
          <mxGeometry x="555" y="210" width="90" height="60" as="geometry" />
        </mxCell>
        <mxCell id="5lclMnRtChPnPHLRJyrd-9" style="edgeStyle=orthogonalEdgeStyle;rounded=1;orthogonalLoop=1;jettySize=auto;html=1;exitX=0.5;exitY=1;exitDx=0;exitDy=0;entryX=0.5;entryY=0;entryDx=0;entryDy=0;endArrow=none;endFill=0;" parent="1" source="5lclMnRtChPnPHLRJyrd-5" target="5lclMnRtChPnPHLRJyrd-8" edge="1">
          <mxGeometry relative="1" as="geometry" />
        </mxCell>
        <mxCell id="5lclMnRtChPnPHLRJyrd-10" style="edgeStyle=orthogonalEdgeStyle;rounded=1;orthogonalLoop=1;jettySize=auto;html=1;exitX=0.5;exitY=1;exitDx=0;exitDy=0;entryX=0.5;entryY=0;entryDx=0;entryDy=0;endArrow=none;endFill=0;" parent="1" source="5lclMnRtChPnPHLRJyrd-5" target="b5Nr3tDvJ9iHZjcrWxrC-35" edge="1">
          <mxGeometry relative="1" as="geometry">
            <Array as="points">
              <mxPoint x="600" y="320" />
              <mxPoint x="565" y="320" />
            </Array>
          </mxGeometry>
        </mxCell>
        <mxCell id="5lclMnRtChPnPHLRJyrd-18" style="edgeStyle=orthogonalEdgeStyle;rounded=1;orthogonalLoop=1;jettySize=auto;html=1;exitX=0.5;exitY=1;exitDx=0;exitDy=0;endArrow=none;endFill=0;entryX=0.5;entryY=0;entryDx=0;entryDy=0;" parent="1" source="5lclMnRtChPnPHLRJyrd-5" target="b5Nr3tDvJ9iHZjcrWxrC-45" edge="1">
          <mxGeometry relative="1" as="geometry">
            <mxPoint x="320" y="560" as="targetPoint" />
            <Array as="points">
              <mxPoint x="600" y="320" />
              <mxPoint x="320" y="320" />
            </Array>
          </mxGeometry>
        </mxCell>
        <mxCell id="5lclMnRtChPnPHLRJyrd-5" value="Сертификат" style="rounded=0;whiteSpace=wrap;html=1;" parent="1" vertex="1">
          <mxGeometry x="555" y="270" width="90" height="30" as="geometry" />
        </mxCell>
        <mxCell id="5lclMnRtChPnPHLRJyrd-7" style="rounded=1;orthogonalLoop=1;jettySize=auto;html=1;exitX=1;exitY=0.5;exitDx=0;exitDy=0;entryX=0;entryY=0;entryDx=0;entryDy=52.5;entryPerimeter=0;edgeStyle=orthogonalEdgeStyle;endArrow=none;endFill=0;" parent="1" source="5lclMnRtChPnPHLRJyrd-4" target="b5Nr3tDvJ9iHZjcrWxrC-22" edge="1">
          <mxGeometry relative="1" as="geometry">
            <Array as="points">
              <mxPoint x="670" y="240" />
              <mxPoint x="670" y="213" />
            </Array>
          </mxGeometry>
        </mxCell>
        <mxCell id="5lclMnRtChPnPHLRJyrd-8" value="Сервис сбора данных" style="rounded=0;whiteSpace=wrap;html=1;" parent="1" vertex="1">
          <mxGeometry x="590" y="350" width="115" height="60" as="geometry" />
        </mxCell>
        <mxCell id="5lclMnRtChPnPHLRJyrd-13" value="Сервис для отправки push-уведомлений" style="rounded=0;whiteSpace=wrap;html=1;" parent="1" vertex="1">
          <mxGeometry x="910" y="360" width="125" height="60" as="geometry" />
        </mxCell>
        <mxCell id="5lclMnRtChPnPHLRJyrd-15" style="edgeStyle=orthogonalEdgeStyle;rounded=1;orthogonalLoop=1;jettySize=auto;html=1;exitX=1;exitY=0.5;exitDx=0;exitDy=0;entryX=0;entryY=1;entryDx=0;entryDy=-15;entryPerimeter=0;" parent="1" source="5lclMnRtChPnPHLRJyrd-8" target="b5Nr3tDvJ9iHZjcrWxrC-22" edge="1">
          <mxGeometry relative="1" as="geometry">
            <Array as="points">
              <mxPoint x="710" y="380" />
              <mxPoint x="710" y="225" />
            </Array>
          </mxGeometry>
        </mxCell>
        <mxCell id="5lclMnRtChPnPHLRJyrd-16" value="Онлайн карта" style="rounded=0;whiteSpace=wrap;html=1;" parent="1" vertex="1">
          <mxGeometry x="210" y="570" width="70" height="60" as="geometry" />
        </mxCell>
        <mxCell id="5lclMnRtChPnPHLRJyrd-19" style="edgeStyle=orthogonalEdgeStyle;rounded=1;orthogonalLoop=1;jettySize=auto;html=1;exitX=0.75;exitY=1;exitDx=0;exitDy=0;entryX=1;entryY=0.5;entryDx=0;entryDy=0;entryPerimeter=0;" parent="1" source="b5Nr3tDvJ9iHZjcrWxrC-49" target="b5Nr3tDvJ9iHZjcrWxrC-21" edge="1">
          <mxGeometry relative="1" as="geometry">
            <Array as="points">
              <mxPoint x="468" y="650" />
              <mxPoint x="1110" y="650" />
              <mxPoint x="1110" y="110" />
            </Array>
          </mxGeometry>
        </mxCell>
        <mxCell id="5lclMnRtChPnPHLRJyrd-20" style="edgeStyle=orthogonalEdgeStyle;rounded=1;orthogonalLoop=1;jettySize=auto;html=1;exitX=0.5;exitY=0;exitDx=0;exitDy=0;entryX=0.25;entryY=1;entryDx=0;entryDy=0;endArrow=none;endFill=0;" parent="1" source="5lclMnRtChPnPHLRJyrd-16" target="b5Nr3tDvJ9iHZjcrWxrC-14" edge="1">
          <mxGeometry relative="1" as="geometry">
            <Array as="points">
              <mxPoint x="245" y="200" />
              <mxPoint x="570" y="200" />
            </Array>
          </mxGeometry>
        </mxCell>
        <mxCell id="5lclMnRtChPnPHLRJyrd-21" value="БД с ресурсами сайта" style="shape=cylinder3;whiteSpace=wrap;html=1;boundedLbl=1;backgroundOutline=1;size=15;" parent="1" vertex="1">
          <mxGeometry x="730" y="-20" width="120" height="80" as="geometry" />
        </mxCell>
        <mxCell id="5lclMnRtChPnPHLRJyrd-24" value="Сервис для отправки уведомлений в мессенджер" style="rounded=0;whiteSpace=wrap;html=1;" parent="1" vertex="1">
          <mxGeometry x="870" y="410" width="125" height="60" as="geometry" />
        </mxCell>
        <mxCell id="b5Nr3tDvJ9iHZjcrWxrC-60" value="Сервис для отправки писем на почту" style="rounded=0;whiteSpace=wrap;html=1;" parent="1" vertex="1">
          <mxGeometry x="839" y="464" width="125" height="60" as="geometry" />
        </mxCell>
        <mxCell id="qDFS0w817NceGPv5ga30-1" value="" style="rounded=1;whiteSpace=wrap;html=1;fillColor=none;dashed=1;" vertex="1" parent="1">
          <mxGeometry x="20" y="-30" width="1050" height="570" as="geometry" />
        </mxCell>
      </root>
    </mxGraphModel>
  </diagram>
</mxfile>
